<svg xmlns="http://www.w3.org/2000/svg" version="1.1" xmlns:xlink="http://www.w3.org/1999/xlink" xmlns:svgjs="http://svgjs.com/svgjs" width="1440" height="560" preserveAspectRatio="none" viewBox="0 0 1440 560"><g mask="url(&quot;#SvgjsMask1267&quot;)" fill="none"><rect width="1440" height="560" x="0" y="0" fill="url(#SvgjsLinearGradient1268)"></rect><path d="M1560 560L0 560 L0 299.49Q36.43 263.92, 72 300.35Q165.77 274.13, 192 367.9Q226.19 282.08, 312 316.27Q356.98 289.25, 384 334.22Q461.25 291.47, 504 368.71Q522.17 266.88, 624 285.05Q699.62 240.66, 744 316.28Q786.11 286.39, 816 328.5Q852.76 245.26, 936 282.03Q1005.53 231.56, 1056 301.09Q1114.62 287.71, 1128 346.33Q1180.63 278.96, 1248 331.59Q1284.24 247.83, 1368 284.07Q1412.56 256.63, 1440 301.18Q1514.64 255.83, 1560 330.47z" fill="#182f5d"></path><path d="M1560 560L0 560 L0 356.64Q99.5 336.14, 120 435.64Q143.96 387.6, 192 411.56Q209.42 356.98, 264 374.4Q312.7 351.1, 336 399.79Q413.94 357.73, 456 435.66Q461.36 369.02, 528 374.38Q593.63 320.01, 648 385.65Q718.17 335.82, 768 405.99Q840.5 358.49, 888 430.99Q910.28 333.27, 1008 355.56Q1074.57 302.13, 1128 368.7Q1218.19 338.89, 1248 429.09Q1273.69 382.78, 1320 408.47Q1366.67 335.14, 1440 381.81Q1519.99 341.81, 1560 421.8z" fill="#25467d"></path><path d="M1512 560L0 560 L0 499.27Q25.15 452.42, 72 477.57Q118.56 404.13, 192 450.7Q215.05 401.75, 264 424.79Q331.43 372.22, 384 439.65Q429.25 412.89, 456 458.14Q513.72 443.86, 528 501.58Q531.63 433.2, 600 436.83Q665.31 430.13, 672 495.44Q720.96 424.4, 792 473.36Q809.38 418.75, 864 436.13Q906.54 406.67, 936 449.21Q997.98 439.19, 1008 501.16Q1053.94 427.1, 1128 473.04Q1165.87 390.91, 1248 428.78Q1297.98 406.76, 1320 456.74Q1392.01 408.75, 1440 480.76Q1446.8 415.56, 1512 422.35z" fill="#356cb1"></path><path d="M1560 560L0 560 L0 496.4Q88.76 465.16, 120 553.93Q135.25 497.17, 192 512.42Q238.8 487.22, 264 534.03Q343.22 493.25, 384 572.46Q416.28 484.74, 504 517.02Q556.68 449.7, 624 502.39Q722.95 481.34, 744 580.29Q771.17 487.46, 864 514.64Q892.67 471.31, 936 499.99Q1028.84 472.83, 1056 565.66Q1101.16 538.83, 1128 583.99Q1143.31 479.3, 1248 494.6Q1318.29 444.89, 1368 515.18Q1426.58 501.76, 1440 560.34Q1464.88 465.22, 1560 490.1z" fill="white"></path></g><defs><mask id="SvgjsMask1267"><rect width="1440" height="560" fill="#ffffff"></rect></mask><linearGradient x1="50%" y1="0%" x2="50%" y2="100%" gradientUnits="userSpaceOnUse" id="SvgjsLinearGradient1268"><stop stop-color="#0e2a47" offset="0"></stop><stop stop-color="rgba(0, 111, 255, 1)" offset="1"></stop></linearGradient></defs></svg>