<svg xmlns="http://www.w3.org/2000/svg" version="1.1" xmlns:xlink="http://www.w3.org/1999/xlink" xmlns:svgjs="http://svgjs.com/svgjs" width="1440" height="560" preserveAspectRatio="none" viewBox="0 0 1440 560"><g mask="url(&quot;#SvgjsMask1000&quot;)" fill="none"><rect width="1440" height="560" x="0" y="0" fill="#0e2a47"></rect><path d="M0,633.023C116.98,646.456,214.954,552.185,315.752,491.32C419.497,428.676,552.708,385.442,596.904,272.597C640.932,160.179,587.616,32.865,538.499,-77.424C497.785,-168.845,411.279,-224.037,343.104,-297.301C277.856,-367.419,235.984,-464.738,146.445,-498.745C54.752,-533.57,-50.157,-517.483,-141.318,-481.286C-227.971,-446.879,-288.335,-373.204,-348.692,-302.144C-408.486,-231.747,-454.385,-155.605,-490.244,-70.486C-536.979,40.448,-637.931,159.01,-589.374,269.158C-540.967,378.967,-374.463,360.745,-272.351,423.787C-172.924,485.171,-116.086,619.693,0,633.023" fill="#0b2239"></path><path d="M1440 1212.296C1563.087 1219.783 1689.419 1173.587 1781.922 1092.0410000000002 1869.191 1015.1089999999999 1880.354 888.988 1927.431 782.602 1973.826 677.758 2076.5299999999997 584.251 2056.587 471.348 2036.6480000000001 358.467 1899.601 313.267 1828.627 223.253 1752.808 127.09500000000003 1734.758-17.59699999999998 1626.276-74.39800000000002 1513.628-133.38099999999997 1371.5430000000001-123.21900000000005 1252.555-78.38 1137.304-34.950000000000045 1038.607 55.331999999999994 986.22 166.79700000000003 938.817 267.658 1000.5409999999999 384.23199999999997 983.381 494.348 965.906 606.487 857.77 703.183 885.483 813.239 913.51 924.5409999999999 1030.645 984.967 1123.805 1052.009 1221.701 1122.4589999999998 1319.613 1204.973 1440 1212.296" fill="#113255"></path></g><defs><mask id="SvgjsMask1000"><rect width="1440" height="560" fill="#ffffff"></rect></mask></defs></svg>